<svg width="15" height="14" viewBox="0 0 15 14" fill="none" xmlns="http://www.w3.org/2000/svg">
<path d="M14.4201 9.73013H5.11543L5.58262 8.77856L13.3451 8.7645C13.6076 8.7645 13.8326 8.577 13.8795 8.31763L14.9545 2.30044C14.9826 2.14263 14.9404 1.98013 14.8373 1.85669C14.7863 1.79594 14.7228 1.747 14.651 1.71328C14.5792 1.67955 14.501 1.66184 14.4217 1.66138L4.54668 1.62856L4.4623 1.23169C4.40918 0.978564 4.18105 0.794189 3.92168 0.794189H1.50762C1.36133 0.794189 1.22104 0.8523 1.1176 0.955738C1.01417 1.05918 0.956055 1.19947 0.956055 1.34575C0.956055 1.49204 1.01417 1.63233 1.1176 1.73577C1.22104 1.8392 1.36133 1.89731 1.50762 1.89731H3.4748L3.84355 3.65044L4.75137 8.04575L3.58262 9.95356C3.52192 10.0355 3.48536 10.1328 3.47708 10.2344C3.4688 10.336 3.48912 10.4379 3.53574 10.5286C3.62949 10.7145 3.81855 10.8317 4.02793 10.8317H5.00918C4.79999 11.1095 4.687 11.448 4.6873 11.7958C4.6873 12.6801 5.40605 13.3989 6.29043 13.3989C7.1748 13.3989 7.89355 12.6801 7.89355 11.7958C7.89355 11.4473 7.77793 11.1083 7.57168 10.8317H10.0889C9.87968 11.1095 9.76669 11.448 9.76699 11.7958C9.76699 12.6801 10.4857 13.3989 11.3701 13.3989C12.2545 13.3989 12.9732 12.6801 12.9732 11.7958C12.9732 11.4473 12.8576 11.1083 12.6514 10.8317H14.4217C14.7248 10.8317 14.9732 10.5848 14.9732 10.2801C14.9723 10.134 14.9137 9.99416 14.81 9.89112C14.7064 9.78808 14.5663 9.73021 14.4201 9.73013V9.73013ZM4.77637 2.71606L13.7732 2.74575L12.892 7.68013L5.8248 7.69263L4.77637 2.71606ZM6.29043 12.2895C6.01855 12.2895 5.79668 12.0676 5.79668 11.7958C5.79668 11.5239 6.01855 11.302 6.29043 11.302C6.5623 11.302 6.78418 11.5239 6.78418 11.7958C6.78418 11.9267 6.73216 12.0523 6.63956 12.1449C6.54697 12.2375 6.42138 12.2895 6.29043 12.2895V12.2895ZM11.3701 12.2895C11.0982 12.2895 10.8764 12.0676 10.8764 11.7958C10.8764 11.5239 11.0982 11.302 11.3701 11.302C11.642 11.302 11.8639 11.5239 11.8639 11.7958C11.8639 11.9267 11.8118 12.0523 11.7193 12.1449C11.6267 12.2375 11.5011 12.2895 11.3701 12.2895V12.2895Z" fill="white"/>
</svg>
